<svg width="44" height="54" viewBox="0 0 44 54" fill="none" xmlns="http://www.w3.org/2000/svg">
<path d="M43.1653 38.8536C37.7472 34.3262 33.7394 29.3948 29.7811 22.3358V19.2598C29.9685 18.7609 29.4248 15.4277 31.686 12.1348C32.3045 11.2442 32.2221 10.0401 31.4881 9.28148C31.0181 8.79491 30.4985 8.42386 29.9295 8.17642V2.85744C29.9295 1.76063 29.0472 0.869995 27.9504 0.869995C26.8536 0.869995 25.9629 1.76064 25.9629 2.85744V8.02799C24.8415 8.31665 23.5962 8.83618 22.2438 9.59485C20.8831 8.82793 19.6378 8.30839 18.5163 8.01978V2.85744C18.5163 1.76063 17.6257 0.869995 16.5371 0.869995C15.4404 0.869995 14.5498 1.76064 14.5498 2.85744V8.16821C13.9725 8.42386 13.4612 8.79491 12.9911 9.28148C12.2655 10.0401 12.1829 11.2442 12.7932 12.1348C15.0542 15.4067 14.519 18.7147 14.6817 19.2021V22.344C10.7233 29.3866 6.72383 34.3345 1.31404 38.8536C0.190485 39.8016 0.253365 41.5362 1.40475 42.3996C2.485 43.2242 3.57359 43.983 4.65394 44.6756C4.27924 45.5742 4.53024 46.6915 5.39604 47.3475C16.6066 55.7348 27.9242 55.7333 39.0833 47.3475C39.9131 46.7188 40.2142 45.6367 39.8171 44.6839C40.9057 43.9912 41.9942 43.2325 43.0745 42.3996C44.2677 41.4916 44.2451 39.7621 43.1653 38.8536ZM15.9186 19.6556H28.5441V21.8904H15.9186V19.6556ZM27.1999 2.85744C27.1999 2.44511 27.5381 2.10698 27.9504 2.10698C28.3627 2.10698 28.6925 2.44511 28.6925 2.85744V7.82183C28.2307 7.74763 27.7277 7.73938 27.1999 7.79711V2.85744ZM15.7868 2.85744C15.7868 2.44511 16.1248 2.10698 16.5371 2.10698C16.9494 2.10698 17.2793 2.44511 17.2793 2.85744V7.78886C16.7515 7.73938 16.2485 7.74763 15.7867 7.82183L15.7868 2.85744ZM13.8157 11.4338C13.5272 11.0215 13.5601 10.4772 13.89 10.1391C15.9796 7.97532 19.3273 9.34393 21.9304 10.8483C22.1201 10.9555 22.3592 10.9555 22.5489 10.8483C25.1525 9.34367 28.5081 7.97542 30.5975 10.1391C30.9191 10.4772 30.9521 11.0215 30.6717 11.4338C29.3028 13.413 28.6843 15.4746 28.6018 18.4187H15.8856C15.795 15.4746 15.1765 13.413 13.8157 11.4338ZM42.3241 41.4183C41.2437 42.2429 40.1635 43.0016 39.075 43.6943C34.5394 39.5215 31.3067 33.7325 28.4451 28.6279C28.2802 28.331 27.9091 28.2238 27.604 28.3887C27.3072 28.5536 27.1999 28.933 27.3648 29.2299C30.6806 35.1522 33.5495 40.1916 38.407 44.7664C38.8651 45.181 38.8814 45.9617 38.3409 46.358C35.265 48.6752 32.2056 50.3328 29.1626 51.3224C27.368 47.375 26.2317 42.7088 25.0805 38.0701C24.9981 37.7403 24.6682 37.5424 24.3301 37.6166C24.0003 37.6991 23.8024 38.0372 23.8848 38.3671C24.9015 42.4738 26.2045 47.8214 27.9668 51.6769C24.1487 52.716 20.3388 52.716 16.5041 51.6605C18.2214 48.0185 19.635 42.2002 20.5862 38.3671C20.6687 38.0372 20.4707 37.6991 20.1409 37.6166C19.811 37.5424 19.4729 37.7403 19.3904 38.0701C18.3825 42.1315 17.0582 47.5892 15.3084 51.3141C12.2655 50.3163 9.21419 48.667 6.12999 46.358C5.60302 45.9398 5.59986 45.2003 6.06405 44.7581C10.8861 40.2167 13.712 35.2949 17.0978 29.2299C17.2711 28.933 17.1639 28.5536 16.8587 28.3887C16.5619 28.2238 16.1908 28.331 16.0176 28.6279C13.1561 33.7325 9.92338 39.5051 5.40429 43.6778C4.31569 43.0016 3.23545 42.2429 2.14695 41.4183C1.63816 41.0282 1.59312 40.2261 2.10567 39.8019C7.58964 35.2169 11.6552 30.2195 15.6629 23.1274H28.808C32.8075 30.2195 36.8814 35.2169 42.3654 39.8019C42.8736 40.2402 42.8546 41.0247 42.3241 41.4183Z" fill="white"/>
</svg>
