<svg width="44" height="45" viewBox="0 0 44 45" fill="none" xmlns="http://www.w3.org/2000/svg">
<path d="M37.1732 17.1985C36.712 16.7592 36.0996 16.5142 35.4627 16.5142C34.8259 16.5142 34.2134 16.7592 33.7523 17.1985L28.4338 22.5169C29.4918 20.5005 30.2391 18.3357 30.6502 16.096L31.2 13.074C31.2276 12.923 31.2053 12.7672 31.1367 12.63C31.0681 12.4928 30.9568 12.3815 30.8195 12.313L29.7652 11.7858C28.4059 11.1041 27.202 10.149 26.229 8.98037C25.256 7.8117 24.535 6.45466 24.1109 4.9943C23.9529 2.6511 20.3627 0.901672 15.6231 0.901672C10.8836 0.901672 7.29331 2.6511 7.1353 4.9943C6.71127 6.45466 5.99018 7.8117 5.0172 8.98037C4.04423 10.149 2.84035 11.1041 1.48102 11.7858L0.426685 12.313C0.289422 12.3815 0.178118 12.4928 0.109504 12.63C0.0408889 12.7672 0.0186709 12.923 0.0461893 13.074L0.596738 16.1031C1.23308 19.569 2.66554 22.8399 4.78126 25.6579C6.89699 28.476 9.63818 30.7642 12.7889 32.3425V36.4309C10.2289 36.6179 5.70331 37.2216 5.70331 39.1638V41.998C5.70331 44.7529 14.6077 44.8322 15.6231 44.8322C16.6385 44.8322 25.5429 44.7529 25.5429 41.998V39.1638C25.5429 37.2216 21.0174 36.6179 18.4573 36.4309V32.3439C21.868 30.6308 24.7933 28.0878 26.9643 24.9487C26.9643 24.9636 26.96 24.9777 26.96 24.9926C26.9591 25.3104 27.0212 25.6253 27.1428 25.9189C27.2645 26.2125 27.4432 26.479 27.6686 26.7031L32.6285 31.663V36.501C30.7494 36.7384 27.6686 37.3966 27.6686 39.1638V41.998C27.6686 43.9451 31.7074 44.8322 35.4627 44.8322C39.2181 44.8322 43.2568 43.9451 43.2568 41.998V39.1638C43.2568 37.3924 40.1682 36.7377 38.2969 36.501V31.663L43.2568 26.7031C43.7105 26.2494 43.9653 25.6342 43.9653 24.9926C43.9653 24.3511 43.7105 23.7358 43.2568 23.2822L37.1732 17.1985ZM23.4172 17.1985C23.4172 17.3386 23.3757 17.4756 23.2978 17.5921C23.22 17.7087 23.1093 17.7995 22.9798 17.8531C22.8504 17.9067 22.7079 17.9208 22.5705 17.8934C22.433 17.8661 22.3068 17.7986 22.2077 17.6995C22.1086 17.6004 22.0411 17.4742 22.0137 17.3367C21.9864 17.1993 22.0004 17.0568 22.0541 16.9273C22.1077 16.7979 22.1985 16.6872 22.315 16.6093C22.4316 16.5315 22.5685 16.4899 22.7087 16.4899C22.8966 16.4899 23.0768 16.5646 23.2097 16.6975C23.3426 16.8303 23.4172 17.0106 23.4172 17.1985ZM23.1473 15.1196C23.0031 15.0885 22.8561 15.0728 22.7087 15.0728C22.1718 15.0743 21.6555 15.2792 21.2638 15.6464C20.8721 16.0135 20.6341 16.5155 20.5979 17.0511C19.8868 17.4557 19.137 17.7881 18.3596 18.0431C18.0657 17.5797 17.6624 17.1958 17.1852 16.9249C16.708 16.6541 16.1716 16.5047 15.6231 16.4899C15.0745 16.5049 14.538 16.6545 14.0608 16.9255C13.5836 17.1966 13.1804 17.5809 12.8867 18.0445C12.1093 17.7895 11.3594 17.4572 10.6483 17.0525C10.6125 16.5166 10.3747 16.0143 9.9829 15.6469C9.59116 15.2795 9.07463 15.0743 8.53754 15.0728C8.3901 15.0728 8.24308 15.0885 8.09894 15.1196C6.86171 13.8925 5.90011 12.4159 5.27818 10.7882C6.38175 9.69367 7.27092 8.40245 7.89984 6.98109C9.21917 8.43789 12.1023 9.40436 15.6231 9.40436C19.1439 9.40436 22.0271 8.43789 23.3464 6.98109C23.9753 8.40245 24.8645 9.69367 25.968 10.7882C25.3461 12.4159 24.3845 13.8925 23.1473 15.1196ZM17.7488 20.7413C17.7488 22.3043 16.7951 23.5755 15.6231 23.5755C14.4512 23.5755 13.4974 22.3043 13.4974 20.7413C13.4974 19.1782 14.4512 17.907 15.6231 17.907C16.7951 17.907 17.7488 19.1782 17.7488 20.7413ZM8.53754 16.4899C8.67768 16.4899 8.81467 16.5315 8.93119 16.6093C9.04772 16.6872 9.13853 16.7979 9.19216 16.9273C9.24579 17.0568 9.25982 17.1993 9.23248 17.3367C9.20514 17.4742 9.13766 17.6004 9.03856 17.6995C8.93947 17.7986 8.81322 17.8661 8.67577 17.8934C8.53833 17.9208 8.39586 17.9067 8.26639 17.8531C8.13691 17.7995 8.02625 17.7087 7.9484 17.5921C7.87054 17.4756 7.82898 17.3386 7.82898 17.1985C7.82898 17.0106 7.90363 16.8303 8.03651 16.6975C8.16939 16.5646 8.34962 16.4899 8.53754 16.4899ZM15.6231 2.31879C19.6789 2.31879 22.7087 3.81526 22.7087 5.15302C22.7087 6.49077 19.6789 7.98724 15.6231 7.98724C11.5673 7.98724 8.53754 6.49077 8.53754 5.15302C8.53754 3.81526 11.5673 2.31879 15.6231 2.31879ZM15.6231 43.4151C10.5647 43.4151 7.48533 42.4876 7.12043 41.9498V40.7729C9.67548 41.9533 14.8628 41.998 15.6231 41.998C16.3834 41.998 21.5707 41.9533 24.1258 40.7729V41.9498C23.7609 42.4876 20.6815 43.4151 15.6231 43.4151ZM15.6231 40.5809C10.7178 40.5809 7.6731 39.7086 7.16081 39.1638C7.51509 38.8059 9.21988 38.1151 12.8094 37.848C12.8271 37.9974 12.8928 38.1371 12.9965 38.2462C13.286 38.5379 13.6306 38.7692 14.0102 38.9267C14.3898 39.0842 14.7969 39.1648 15.2079 39.1638H16.0383C16.4492 39.165 16.8563 39.0846 17.2359 38.9273C17.6155 38.7701 17.9601 38.539 18.2497 38.2476C18.3535 38.1386 18.4191 37.9988 18.4368 37.8494C22.0263 38.1165 23.7318 38.8074 24.0854 39.1652C23.5731 39.7086 20.5285 40.5809 15.6231 40.5809ZM17.0402 37.4221C16.7483 37.6321 16.398 37.7456 16.0383 37.7466H15.2079C14.8483 37.7456 14.498 37.6321 14.206 37.4221V32.9915C14.5992 33.1559 14.9946 33.3153 15.3992 33.4577C15.5486 33.5083 15.7106 33.5068 15.8591 33.4535C16.2594 33.3118 16.6512 33.1545 17.0402 32.9915V37.4221ZM15.6231 32.0328C12.1403 30.7537 9.05116 28.5885 6.66059 25.751C4.27001 22.9135 2.6606 19.5016 1.99118 15.8522L1.53558 13.3454L2.11518 13.0556C2.83184 12.6942 3.5115 12.2637 4.14448 11.7702C4.79545 13.2996 5.71935 14.6977 6.87101 15.8962C6.69568 16.1173 6.5663 16.3712 6.49047 16.643C6.41464 16.9148 6.39388 17.199 6.42943 17.4789C6.46498 17.7588 6.5561 18.0288 6.69746 18.2731C6.83882 18.5173 7.02755 18.7308 7.25258 18.901C7.4776 19.0713 7.73439 19.1949 8.00784 19.2645C8.28129 19.3341 8.5659 19.3484 8.84495 19.3065C9.124 19.2646 9.39186 19.1673 9.6328 19.0205C9.87374 18.8736 10.0829 18.6801 10.248 18.4512C10.9015 18.8018 11.5826 19.0985 12.2844 19.3383C12.1498 19.7939 12.0811 20.2663 12.0803 20.7413C12.0803 23.0859 13.6696 24.9926 15.6231 24.9926C17.5766 24.9926 19.1659 23.0859 19.1659 20.7413C19.1656 20.2664 19.0973 19.7939 18.9633 19.3383C19.6652 19.0984 20.3465 18.8017 21.0004 18.4512C21.1648 18.6817 21.3738 18.8768 21.615 19.0251C21.8561 19.1734 22.1246 19.2718 22.4045 19.3146C22.6843 19.3573 22.9699 19.3435 23.2444 19.274C23.5188 19.2045 23.7766 19.0806 24.0023 18.9098C24.2281 18.7389 24.4173 18.5246 24.5588 18.2793C24.7002 18.0341 24.7911 17.763 24.826 17.482C24.8609 17.2011 24.8391 16.916 24.7619 16.6436C24.6847 16.3712 24.5537 16.117 24.3766 15.8962C25.5278 14.6976 26.4512 13.2995 27.1017 11.7702C27.7344 12.2629 28.4135 12.6927 29.1296 13.0534L29.7092 13.3432L29.255 15.8423C28.5866 19.4933 26.9777 22.9069 24.5871 25.7461C22.1965 28.5854 19.1069 30.7523 15.6231 32.0328ZM34.0456 33.0284C34.4558 33.3317 34.9525 33.4954 35.4627 33.4954C35.9729 33.4954 36.4696 33.3317 36.8798 33.0284V37.4214C36.588 37.6317 36.2376 37.7454 35.8779 37.7466H35.0475C34.6879 37.7456 34.3376 37.6321 34.0456 37.4221V33.0284ZM35.4627 43.4151C31.3177 43.4151 29.1927 42.3806 29.0857 41.998V40.8841C30.5935 41.6437 33.0841 41.998 35.4627 41.998C37.8413 41.998 40.3326 41.6402 41.8397 40.8834V41.9874C41.7327 42.3806 39.6078 43.4151 35.4627 43.4151ZM41.8397 39.1531C41.7327 39.5464 39.6078 40.5809 35.4627 40.5809C31.3177 40.5809 29.1998 39.5492 29.0857 39.1765V39.1723C29.1516 38.9469 30.1613 38.2625 32.6646 37.9266C32.6924 38.0469 32.7516 38.1576 32.8361 38.2476C33.1257 38.539 33.4704 38.7701 33.85 38.9273C34.2296 39.0846 34.6366 39.165 35.0475 39.1638H35.8779C36.2888 39.165 36.6959 39.0846 37.0755 38.9273C37.4551 38.7701 37.7997 38.539 38.0893 38.2476C38.1741 38.1577 38.2335 38.0469 38.2615 37.9266C40.7712 38.2632 41.7795 38.9512 41.8397 39.1531ZM42.2549 25.7012L36.1713 31.7848C35.979 31.9644 35.7258 32.0643 35.4627 32.0643C35.1997 32.0643 34.9464 31.9644 34.7542 31.7848L28.6705 25.7012C28.4827 25.5132 28.3772 25.2583 28.3772 24.9926C28.3772 24.7269 28.4827 24.4721 28.6705 24.2841L34.7542 18.2004C34.9422 18.0126 35.197 17.9071 35.4627 17.9071C35.7284 17.9071 35.9833 18.0126 36.1713 18.2004L42.2549 24.2841C42.4427 24.4721 42.5482 24.7269 42.5482 24.9926C42.5482 25.2583 42.4427 25.5132 42.2549 25.7012Z" fill="white"/>
<path d="M38.2969 23.7435V21.4499H36.8798V23.7435C36.4178 24.0108 36.0401 24.4024 35.7896 24.8738C35.539 25.3451 35.4258 25.8773 35.4627 26.4098C35.4627 27.9991 36.3966 29.244 37.5884 29.244C38.7802 29.244 39.714 27.9991 39.714 26.4098C39.7509 25.8773 39.6377 25.3451 39.3872 24.8738C39.1367 24.4024 38.7589 24.0108 38.2969 23.7435ZM37.5884 27.8269C37.2993 27.8269 36.8798 27.2749 36.8798 26.4098C36.8798 25.5446 37.2993 24.9927 37.5884 24.9927C37.8775 24.9927 38.2969 25.5446 38.2969 26.4098C38.2969 27.2749 37.8775 27.8269 37.5884 27.8269Z" fill="white"/>
<path d="M34.0456 23.7435V21.4499H32.6285V23.7435C32.1664 24.0108 31.7887 24.4024 31.5382 24.8738C31.2877 25.3451 31.1744 25.8773 31.2113 26.4098C31.2113 27.9991 32.1452 29.244 33.337 29.244C34.5288 29.244 35.4627 27.9991 35.4627 26.4098C35.4996 25.8773 35.3863 25.3451 35.1358 24.8738C34.8853 24.4024 34.5076 24.0108 34.0456 23.7435ZM33.337 27.8269C33.0479 27.8269 32.6285 27.2749 32.6285 26.4098C32.6285 25.5446 33.0479 24.9927 33.337 24.9927C33.6261 24.9927 34.0456 25.5446 34.0456 26.4098C34.0456 27.2749 33.6261 27.8269 33.337 27.8269Z" fill="white"/>
</svg>
