<svg width="44" height="40" viewBox="0 0 44 40" fill="none" xmlns="http://www.w3.org/2000/svg">
<path d="M20.7078 35.3555H16.6474C16.2734 35.3555 15.9707 35.6586 15.9707 36.0323C15.9707 36.406 16.2734 36.709 16.6474 36.709H20.7078C21.0818 36.709 21.3845 36.406 21.3845 36.0323C21.3845 35.6586 21.0818 35.3555 20.7078 35.3555Z" fill="white"/>
<path d="M18.6776 9.63976C15.4478 9.63976 12.3796 10.7205 9.8801 12.6993V11.9894C9.8801 9.86477 8.69981 7.95449 6.79914 7.00416C6.60885 6.90901 6.38411 6.90901 6.19381 7.00416C4.29314 7.95449 3.11286 9.86477 3.11286 11.9894V21.8208H2.43613C2.0621 21.8208 1.7594 22.1239 1.7594 22.4976V25.8812H1.0826C0.896904 25.8812 0.719127 25.9579 0.590886 26.093C0.463322 26.2282 0.396597 26.41 0.407154 26.5956L1.01317 37.498C1.07265 38.5736 1.96215 39.4159 3.03937 39.4159H28.1518C30.7636 39.4159 32.8889 37.2909 32.8889 34.6788V33.3253C32.8889 32.9516 32.5862 32.6486 32.2122 32.6486H29.8269C31.808 30.1518 32.8889 27.0821 32.8889 23.8511C32.8889 16.0148 26.5135 9.63976 18.6776 9.63976ZM23.7226 32.6486H12.2493L12.5857 26.5957C12.5963 26.41 12.5296 26.2282 12.402 26.0931C12.2738 25.958 12.0961 25.8813 11.9103 25.8813H11.2336V22.4976C11.2336 22.1239 10.9309 21.8209 10.5568 21.8209H9.8801V18.8065C11.6927 15.654 15.0463 13.7001 18.6776 13.7001C24.2752 13.7001 28.8286 18.2539 28.8286 23.8511C28.8286 27.4824 26.875 30.836 23.7226 32.6486ZM6.49644 8.38144C7.0605 8.72245 7.51919 9.18608 7.86161 9.72306C7.05346 10.9195 5.85098 11.7876 4.46625 12.1728V11.9894C4.46625 10.4965 5.23549 9.14371 6.49644 8.38144ZM4.46625 13.5672C6.01908 13.2199 7.40854 12.38 8.44218 11.1868C8.49232 11.4486 8.52664 11.7154 8.52664 11.9894V21.8208H4.46625V13.5672ZM3.11279 23.1744H9.8801V25.8813H3.11279V23.1744ZM3.03943 38.0624C2.68056 38.0624 2.38382 37.7816 2.36406 37.4231L1.79838 27.2348H11.1953L10.8574 33.3131C10.8573 33.3173 10.8549 33.321 10.8549 33.3253L10.8563 33.3323L10.6288 37.4234C10.609 37.7816 10.3123 38.0624 9.95345 38.0624H3.03943ZM31.5355 34.6788C31.5355 36.5444 30.0174 38.0624 28.1518 38.0624H11.8575C11.921 37.8836 11.9687 37.697 11.9797 37.4984L12.174 34.0021H31.5355V34.6788ZM26.0769 32.6486C28.6492 30.4841 30.182 27.2765 30.182 23.8511C30.182 17.5074 25.0213 12.3467 18.6776 12.3467C15.2525 12.3467 12.0446 13.8795 9.8801 16.452V14.4914C12.2743 12.2393 15.3816 10.9932 18.6776 10.9932C25.7674 10.9932 31.5355 16.7613 31.5355 23.8511C31.5355 27.1487 30.2877 30.2579 28.0323 32.6486H26.0769Z" fill="white"/>
<path d="M43.5713 4.75067C43.6678 4.47869 43.7166 4.19555 43.7166 3.90875C43.7166 3.03279 43.25 2.20901 42.4987 1.75864L42.3255 1.6549C39.078 -0.294015 34.82 -0.293677 31.5738 1.65456L31.4 1.75864C30.6486 2.20901 30.182 3.03279 30.182 3.90875C30.182 4.19555 30.231 4.47876 30.3281 4.75236L33.5715 13.8333L34.8464 37.4244C34.9072 38.541 35.8304 39.416 36.9493 39.416C38.0681 39.416 38.9914 38.541 39.0521 37.4244L40.327 13.8333L43.5713 4.75067ZM34.9568 14.3769H38.9419L38.7956 17.0838H35.1032L34.9568 14.3769ZM31.5355 3.90868C31.5355 3.50556 31.7503 3.12652 32.0952 2.91971L32.2697 2.81529C35.0956 1.11947 38.8024 1.1192 41.6296 2.81563L41.8034 2.91971C42.1484 3.12659 42.3631 3.50556 42.3631 3.90868C42.3631 4.04085 42.3407 4.17207 42.2964 4.29693L39.1791 13.0234H34.7196L31.6029 4.29855C31.558 4.172 31.5355 4.04085 31.5355 3.90868ZM37.7001 37.351C37.679 37.7499 37.3492 38.0625 36.9493 38.0625C36.5495 38.0625 36.2198 37.7499 36.1986 37.351L35.1762 18.4373H38.7224L37.7001 37.351Z" fill="white"/>
</svg>
