<svg width="36" height="45" viewBox="0 0 36 45" fill="none" xmlns="http://www.w3.org/2000/svg">
<path d="M26.6655 4.93005C25.9487 4.93163 25.5453 3.81771 26.3126 3.43328C26.3126 3.43328 32.5991 0.290057 32.6148 0.282179C33.5239 -0.171579 34.2282 1.23696 33.3191 1.6923L27.0169 4.8434C26.8956 4.90327 26.7758 4.93005 26.6655 4.93005Z" fill="white"/>
<path d="M32.9677 14.3754C32.848 14.377 32.7283 14.3502 32.6148 14.2951C32.6148 14.2951 26.3284 11.1519 26.3126 11.144C25.413 10.695 26.1031 9.28326 27.0169 9.73387C27.0169 9.73387 33.3081 12.8802 33.3191 12.885C34.0407 13.2458 33.7728 14.3691 32.9677 14.3754Z" fill="white"/>
<path d="M32.9677 8.0764H26.6655C26.2307 8.0764 25.8777 7.72348 25.8777 7.28863C25.8777 6.85378 26.2307 6.50085 26.6655 6.50085H32.9677C33.4026 6.50085 33.7555 6.85378 33.7555 7.28863C33.7555 7.72348 33.4026 8.0764 32.9677 8.0764Z" fill="white"/>
<path d="M21.1511 14.6796V12.8031H23.5144C23.9493 12.8031 24.3022 12.4502 24.3022 12.0153V7.28866C24.3022 6.85381 23.9493 6.50088 23.5144 6.50088C23.0812 6.50088 22.7267 6.14796 22.7267 5.71311C22.7267 5.27825 23.0812 4.92533 23.5144 4.92533C23.9493 4.92533 24.3022 4.57241 24.3022 4.13756V2.56201C24.3022 2.12715 23.9493 1.77423 23.5144 1.77423H12.4856C12.0507 1.77423 11.6978 2.12715 11.6978 2.56201V12.0153C11.6978 12.4502 12.0507 12.8031 12.4856 12.8031H14.8489V14.6796C6.7947 16.1669 0.668961 23.2301 0.668961 31.7097C0.668961 36.4159 2.52181 40.8132 5.88718 44.0904C6.03213 44.2337 6.23065 44.3141 6.43547 44.3141H29.5646C29.7694 44.3141 29.9679 44.2337 30.1144 44.0904C33.4782 40.8132 35.3311 36.4159 35.3311 31.7097C35.3311 23.2301 29.2053 16.1669 21.1511 14.6796ZM13.2734 11.2275V3.34978H22.7267V3.4837C21.8097 3.80984 21.1511 4.68585 21.1511 5.71311C21.1511 6.74037 21.8097 7.61637 22.7267 7.94251V11.2275H13.2734ZM16.4245 12.8031H19.5756V14.459C19.0556 14.4117 18.5325 14.3786 18 14.3786C17.4675 14.3786 16.9444 14.4117 16.4245 14.459V12.8031ZM18 15.9542C24.715 15.9542 30.4469 20.1845 32.7109 26.1149C28.1828 29.7072 23.5302 29.5386 18.4743 25.5666C13.8358 22.0689 9.0824 21.5222 4.31793 23.9296C7.03261 19.173 12.1437 15.9542 18 15.9542ZM29.24 42.7385H6.76004C3.84685 39.7844 2.24451 35.8817 2.24451 31.7097C2.24451 29.86 2.58168 28.0906 3.17093 26.4395C8.06302 23.1088 12.7582 23.2316 17.5147 26.8145C20.4453 29.1179 23.3269 30.2712 26.1409 30.2696C28.5578 30.2696 30.9211 29.411 33.223 27.7078C33.5586 28.9887 33.7555 30.3248 33.7555 31.7097C33.7555 35.8817 32.1532 39.7844 29.24 42.7385Z" fill="white"/>
</svg>
