<svg width="44" height="49" viewBox="0 0 44 49" fill="none" xmlns="http://www.w3.org/2000/svg">
<path d="M22.8275 26.6825C22.7372 26.663 22.6446 26.6594 22.5531 26.6731C21.6367 26.5664 20.9454 25.7911 20.9439 24.8688C20.9439 24.4269 20.5855 24.0685 20.1435 24.0685C19.7015 24.0685 19.3432 24.4269 19.3432 24.8688C19.3455 26.4089 20.3757 27.7579 21.8607 28.1655V28.9659C21.8607 29.4079 22.219 29.7662 22.661 29.7662C23.103 29.7662 23.4613 29.4079 23.4613 28.9659V28.214C25.1753 27.8552 26.3403 26.2589 26.1601 24.5171C25.9796 22.7754 24.5122 21.4518 22.761 21.4514C21.7575 21.4514 20.9439 20.6378 20.9439 19.6342C20.9439 18.6307 21.7575 17.817 22.761 17.817C23.7646 17.817 24.5782 18.6307 24.5782 19.6342C24.5782 20.0762 24.9366 20.4345 25.3785 20.4345C25.8205 20.4345 26.1789 20.0762 26.1789 19.6342C26.1765 18.0171 25.0436 16.6224 23.4613 16.2887V15.5602C23.4613 15.1182 23.103 14.7599 22.661 14.7599C22.219 14.7599 21.8607 15.1182 21.8607 15.5602V16.3375C20.2092 16.7885 19.1462 18.3919 19.3737 20.0887C19.6011 21.7855 21.049 23.0521 22.761 23.0517C23.7513 23.0517 24.5591 23.8446 24.577 24.8344C24.5954 25.8243 23.817 26.6465 22.8275 26.6825Z" fill="white"/>
<path d="M11.1554 22.3131C11.1554 28.7228 16.3513 33.9187 22.761 33.9187C29.1708 33.9187 34.3667 28.7228 34.3667 22.3131C34.3667 15.9033 29.1708 10.7074 22.761 10.7074C16.3544 10.7144 11.1628 15.9065 11.1554 22.3131ZM22.761 12.3081C28.2868 12.3081 32.766 16.7873 32.766 22.3131C32.766 27.8388 28.2868 32.3181 22.761 32.3181C17.2353 32.3181 12.756 27.8388 12.756 22.3131C12.7623 16.79 17.238 12.3143 22.761 12.3081Z" fill="white"/>
<path d="M38.3121 35.8918L32.0427 38.854C31.1771 37.244 29.5166 36.2193 27.6893 36.1677L21.9017 36.0087C20.9853 35.9825 20.0861 35.7504 19.2713 35.3295L18.6824 35.0243C15.667 33.4525 12.0729 33.4564 9.06074 35.0344L9.09748 33.7003C9.10959 33.2583 8.7614 32.8902 8.31941 32.8781L1.97299 32.7034C1.53101 32.6913 1.16327 33.0394 1.15116 33.4814L0.767793 47.4084C0.755679 47.8504 1.10387 48.2185 1.54586 48.2306L7.89228 48.4053H7.91416C8.34794 48.4053 8.70278 48.0602 8.7145 47.6268L8.73287 46.9605L10.3816 46.0778C11.0288 45.7296 11.7853 45.6467 12.4923 45.8468L22.3378 48.6101C22.355 48.6152 22.3722 48.6191 22.3898 48.623C23.1014 48.7719 23.8267 48.8465 24.5536 48.8461C26.0933 48.8469 27.615 48.5151 29.0145 47.8727C29.0489 47.857 29.0821 47.8387 29.1137 47.8179L43.3889 38.5844C43.7445 38.3542 43.8594 37.8872 43.6511 37.5183C42.5913 35.6378 40.2407 34.9215 38.3121 35.8918ZM2.38996 46.6526L2.72917 34.3255L7.47531 34.4561L7.1361 46.7835L2.38996 46.6526ZM28.2935 46.4431C26.5548 47.2278 24.613 47.4443 22.7442 47.0625L12.9253 44.3063C11.8201 43.9941 10.6372 44.1234 9.62621 44.667L8.78367 45.1184L9.00916 36.9223C11.679 35.1466 15.1031 34.9641 17.9465 36.4456L18.5354 36.7508C19.5648 37.2823 20.7 37.5753 21.8579 37.609L27.6459 37.768C29.2716 37.8149 30.6523 38.9724 30.9821 40.5653L22.3609 40.3273C21.9189 40.3152 21.5512 40.6638 21.5387 41.1053C21.5265 41.5473 21.8751 41.9155 22.3167 41.9276L31.8309 42.1894H31.8532C32.2865 42.189 32.641 41.8439 32.6527 41.4109C32.6625 41.0631 32.6367 40.7149 32.5753 40.3726L39.0058 37.3342C39.012 37.3315 39.0183 37.3284 39.0245 37.3252C39.9366 36.8637 41.0395 37.0181 41.7898 37.7125L28.2935 46.4431Z" fill="white"/>
<path d="M23.5614 8.45725V0.854048C23.5614 0.412065 23.203 0.0537109 22.761 0.0537109C22.319 0.0537109 21.9607 0.412065 21.9607 0.854048V8.45725C21.9607 8.89924 22.319 9.25759 22.761 9.25759C23.203 9.25759 23.5614 8.89924 23.5614 8.45725Z" fill="white"/>
<path d="M29.5639 8.45721V4.8557C29.5639 4.41371 29.2055 4.05536 28.7636 4.05536C28.3216 4.05536 27.9632 4.41371 27.9632 4.8557V8.45721C27.9632 8.8992 28.3216 9.25755 28.7636 9.25755C29.2055 9.25755 29.5639 8.8992 29.5639 8.45721Z" fill="white"/>
<path d="M17.5588 8.45721V4.8557C17.5588 4.41371 17.2005 4.05536 16.7585 4.05536C16.3165 4.05536 15.9582 4.41371 15.9582 4.8557V8.45721C15.9582 8.8992 16.3165 9.25755 16.7585 9.25755C17.2005 9.25755 17.5588 8.8992 17.5588 8.45721Z" fill="white"/>
</svg>
