<svg width="47" height="37" viewBox="0 0 47 37" fill="none" xmlns="http://www.w3.org/2000/svg">
<path d="M39.8742 33.4118C40.3678 33.4118 40.7686 33.0111 40.7686 32.5174C40.7686 32.0234 40.3678 31.6227 39.8742 31.6227C39.3802 31.6227 38.9794 32.0234 38.9794 32.5174C38.9794 33.0111 39.3802 33.4118 39.8742 33.4118Z" fill="white"/>
<path d="M0.556118 13.7639C0.762595 14.7799 1.11301 15.7358 1.59794 16.605C3.17639 19.436 3.91705 22.3839 3.91705 25.0549V36.0953C3.91705 36.589 4.31743 36.9897 4.81144 36.9897H8.38933C8.88299 36.9897 9.28372 36.589 9.28372 36.0953V26.1166C9.28372 24.1004 9.74838 22.0768 10.6284 20.2619L10.7102 20.1302C14.9453 23.6553 18.3355 28.1485 20.5488 33.1805C21.5662 35.4944 23.8231 36.9897 26.298 36.9897H33.6128C37.1445 36.9897 39.9203 36.9167 41.9868 36.561C43.0129 36.3842 46.1352 35.8473 46.1352 33.4118C46.1352 32.0346 44.9942 30.0348 43.2281 28.3173C42.0424 27.1633 39.5451 25.1534 36.1481 24.6538C35.884 24.615 35.6168 24.6961 35.4187 24.8746C34.532 25.675 32.7942 26.256 31.2874 26.256C29.1454 26.256 26.8773 25.0332 26.0119 23.4118C25.9948 23.38 25.9759 23.3493 25.9553 23.3196L19.9846 14.8009C16.2893 9.52924 11.8778 4.80332 6.87307 0.75482C6.54676 0.490697 6.08105 0.48895 5.75299 0.750628C4.35691 1.86337 3.19211 3.19447 2.29074 4.70689C0.552275 7.62517 -0.00741529 10.9529 0.550528 13.737C0.552275 13.7461 0.554022 13.7552 0.556118 13.7639ZM7.4946 26.1166V35.2006H5.70583V25.0549C5.70583 24.7859 5.69709 24.4959 5.68032 24.194C5.40816 19.291 3.27736 16.0537 2.87698 15.1723C5.14509 16.2242 7.29651 17.5109 9.29804 19.0136C8.33239 20.5767 7.4946 23.3189 7.4946 26.1166ZM3.82761 5.62259C4.49701 4.49936 5.33305 3.48934 6.31862 2.61242C10.9593 6.45094 15.0612 10.8939 18.52 15.8277L24.4607 24.3041C25.6499 26.4751 28.5099 28.0451 31.2874 28.0451C33.0489 28.0451 35.0221 27.418 36.2687 26.488C38.9763 27.0033 40.9956 28.6408 41.9809 29.5995C43.5338 31.1101 44.3461 32.6607 44.3461 33.4118C44.3461 34.1787 42.8983 34.5888 41.6832 34.7981C39.7418 35.1321 37.0527 35.2006 33.6128 35.2006H26.298C24.5323 35.2006 22.9182 34.1252 22.1863 32.4605C18.3132 23.6546 11.1549 16.6393 2.2261 12.9328C1.90154 10.7318 2.39066 8.03498 3.82761 5.62259Z" fill="white"/>
<path d="M26.2785 33.4118H36.2963C36.7903 33.4118 37.1907 33.0111 37.1907 32.5174C37.1907 32.0234 36.7903 31.6227 36.2963 31.6227H26.2785C25.7844 31.6227 25.3837 32.0234 25.3837 32.5174C25.3837 33.0111 25.7844 33.4118 26.2785 33.4118Z" fill="white"/>
</svg>
